<?xml version="1.0" encoding="UTF-8"?>
<svg width="130px" height="130px" viewBox="0 0 130 130" version="1.1" xmlns="http://www.w3.org/2000/svg" xmlns:xlink="http://www.w3.org/1999/xlink">
    <!-- Generator: Sketch 61 (89581) - https://sketch.com -->
    <title>ic_chat</title>
    <desc>Created with Sketch.</desc>
    <defs>
        <path d="M128.333333,12.8333333 L25.6666667,12.8333333 C18.6083333,12.8333333 12.8975,18.6083333 12.8975,25.6666667 L12.8333333,141.166667 L38.5,115.5 L128.333333,115.5 C135.391667,115.5 141.166667,109.725 141.166667,102.666667 L141.166667,25.6666667 C141.166667,18.6083333 135.391667,12.8333333 128.333333,12.8333333 L128.333333,12.8333333 Z M38.5,57.75 L115.5,57.75 L115.5,70.5833333 L38.5,70.5833333 L38.5,57.75 L38.5,57.75 Z M89.8333333,89.8333333 L38.5,89.8333333 L38.5,77 L89.8333333,77 L89.8333333,89.8333333 L89.8333333,89.8333333 Z M115.5,51.3333333 L38.5,51.3333333 L38.5,38.5 L115.5,38.5 L115.5,51.3333333 L115.5,51.3333333 Z" id="path-1"></path>
        <linearGradient x1="0%" y1="-2.1074539%" x2="45.2423338%" y2="94.5392472%" id="linearGradient-3">
            <stop stop-color="#002539" offset="0%"></stop>
            <stop stop-color="#EBF2E8" offset="100%"></stop>
        </linearGradient>
        <rect id="path-4" x="0" y="0" width="320.833333" height="320.833333"></rect>
    </defs>
    <g id="Page-1" stroke="none" stroke-width="1" fill="none" fill-rule="evenodd">
        <g id="Desktop" transform="translate(-409.000000, -2904.000000)">
            <g id="Featured-Customer" transform="translate(-85.000000, 2884.000000)">
                <g id="ic_chat" transform="translate(482.000000, 8.000000)">
                    <mask id="mask-2" fill="white">
                        <use xlink:href="#path-1"></use>
                    </mask>
                    <g id="Mask"></g>
                    <g id="Topple-Colors-/grad/blue-mint" mask="url(#mask-2)">
                        <g transform="translate(-83.416667, -83.416667)">
                            <mask id="mask-5" fill="white">
                                <use xlink:href="#path-4"></use>
                            </mask>
                            <use id="Topple-Blue/Mint" stroke="none" fill="url(#linearGradient-3)" fill-rule="evenodd" xlink:href="#path-4"></use>
                        </g>
                    </g>
                </g>
            </g>
        </g>
    </g>
</svg>