
<svg width="814px" height="814px" viewBox="0 0 814 814" version="1.1" xmlns="http://www.w3.org/2000/svg" xmlns:xlink="http://www.w3.org/1999/xlink">
    <defs>
        <linearGradient x1="58.8605574%" y1="38.990587%" x2="71.4081562%" y2="78.581006%" id="linearGradient-1">
            <stop stop-color="#FF5100" offset="0%"></stop>
            <stop stop-color="#EBF2E8" offset="100%"></stop>
        </linearGradient>
        <linearGradient x1="58.8605574%" y1="38.990587%" x2="71.4081562%" y2="78.581006%" id="linearGradient-2">
            <stop stop-color="#FF5100" offset="0%"></stop>
            <stop stop-color="#EBF2E8" offset="100%"></stop>
        </linearGradient>
    </defs>
    <g id="Page-1" stroke="none" stroke-width="1" fill="none" fill-rule="evenodd">
        <g id="Desktop-HD" transform="translate(-602.000000, -101.000000)">
            <g id="Hero">
                <g id="Squares-/pure/transform-upright" transform="translate(1009.000000, 508.000000) rotate(-180.000000) translate(-1009.000000, -508.000000) translate(603.000000, 102.000000)">
                    <g id="Squares" transform="translate(4.971429, -14.914286)">
                        <path d="M473.511171,20.2877371 C315.810829,129.688994 158.1022,239.094394 0.401857143,348.494823 C109.803114,506.195994 219.208514,663.903794 328.609771,821.604137 C486.310943,712.203709 644.017914,602.79748 801.719086,493.397051 C692.317829,335.69588 582.912429,177.98808 473.511171,20.2877371 Z" id="Stroke-1" stroke="url(#linearGradient-1)" stroke-width="7.883"></path>
                        <path d="M478.575342,32.3142857 C328.719519,136.273681 178.855823,240.237014 29,344.195622 C132.959288,494.052387 236.922513,643.915451 340.881801,793.771429 C490.738411,689.81282 640.600533,585.8487 790.457143,481.890092 C686.497855,332.033327 582.53463,182.170263 478.575342,32.3142857 Z" id="Stroke-2" stroke="url(#linearGradient-2)" stroke-width="7.48885" transform="translate(409.728571, 413.042857) rotate(-3.000000) translate(-409.728571, -413.042857) "></path>
                        <path d="M483.414972,43.0857143 C341.060093,141.841484 198.697735,240.600994 56.3428571,339.356015 C155.098525,481.711789 253.857932,624.073546 352.6136,766.428571 C494.969226,667.67355 637.330088,568.913292 779.685714,470.15827 C680.930047,327.802497 582.170639,185.44074 483.414972,43.0857143 Z" id="Stroke-3" stroke="url(#linearGradient-2)" stroke-width="7.1144075" transform="translate(418.014286, 404.757143) rotate(-6.000000) translate(-418.014286, -404.757143) "></path>
                        <path d="M488.404431,53.0285714 C353.224369,146.80696 218.037205,240.5889 82.8571429,334.366578 C176.635434,469.54749 270.417277,604.734084 364.195569,739.914286 C499.376341,646.136607 634.562085,552.353958 769.742857,458.576279 C675.964566,323.395367 582.182723,188.208773 488.404431,53.0285714 Z" id="Stroke-4" stroke="url(#linearGradient-2)" stroke-width="6.75868712" transform="translate(426.300000, 396.471429) rotate(-9.000000) translate(-426.300000, -396.471429) "></path>
                        <path d="M494.032921,62.1428571 C365.538484,151.283231 237.037295,240.426981 108.542857,329.56668 C197.683139,458.061926 286.826797,586.562572 375.967079,715.057143 C504.462191,625.917444 632.96203,536.773019 761.457143,447.63332 C672.316861,319.138074 583.173203,190.637428 494.032921,62.1428571 Z" id="Stroke-5" stroke="url(#linearGradient-2)" stroke-width="6.42075277" transform="translate(435.000000, 388.600000) rotate(-12.000000) translate(-435.000000, -388.600000) "></path>
                        <path d="M499.811241,70.4285714 C377.6763,155.157176 255.534941,239.888989 133.4,324.616951 C218.128517,446.752661 302.860242,568.893504 387.588759,691.028571 C509.724342,606.300609 631.864417,521.568154 754,436.840192 C669.271483,314.704482 584.539758,192.563639 499.811241,70.4285714 Z" id="Stroke-6" stroke="url(#linearGradient-2)" stroke-width="6.09971513" transform="translate(443.700000, 380.728571) rotate(-15.000000) translate(-443.700000, -380.728571) "></path>
                        <path d="M505.739391,77.8857143 C389.637818,158.428793 273.530145,238.974923 157.428571,319.517392 C237.971567,435.619695 318.517613,551.726878 399.060609,667.828571 C515.162792,587.286102 631.269245,506.739363 747.371429,426.196894 C666.828433,310.094591 586.282387,193.987407 505.739391,77.8857143 Z" id="Stroke-7" stroke="url(#linearGradient-2)" stroke-width="5.79472937" transform="translate(452.400000, 372.857143) rotate(-18.000000) translate(-452.400000, -372.857143) "></path>
                        <path d="M511.32817,84.5142857 C401.096901,160.984962 290.85984,237.458534 180.628571,313.928631 C257.099169,424.160593 333.572662,534.397189 410.043259,644.628571 C520.275107,568.158474 630.511009,491.684323 740.742857,415.214226 C664.27226,304.982264 587.798767,194.745669 511.32817,84.5142857 Z" id="Stroke-8" stroke="url(#linearGradient-2)" stroke-width="5.50499291" transform="translate(460.685714, 364.571429) rotate(-21.000000) translate(-460.685714, -364.571429) "></path>
                    </g>
                </g>
            </g>
        </g>
    </g>
</svg>