
<svg width="740px" height="740px" viewBox="0 0 740 740" version="1.1" xmlns="http://www.w3.org/2000/svg" xmlns:xlink="http://www.w3.org/1999/xlink">
    <defs>
        <linearGradient x1="58.8605574%" y1="38.990587%" x2="71.4081562%" y2="78.581006%" id="linearGradient-1">
            <stop stop-color="#FF5100" offset="0%"></stop>
            <stop stop-color="#EBF2E8" offset="100%"></stop>
        </linearGradient>
        <linearGradient x1="58.8605574%" y1="38.990587%" x2="71.4081562%" y2="78.581006%" id="linearGradient-2">
            <stop stop-color="#FF5100" offset="0%"></stop>
            <stop stop-color="#EBF2E8" offset="100%"></stop>
        </linearGradient>
    </defs>
    <g id="Page-1" stroke="none" stroke-width="1" fill="none" fill-rule="evenodd">
        <g id="Tablet" transform="translate(-14.000000, -4074.000000)">
            <g id="Footer" transform="translate(0.000000, 4014.000000)">
                <g id="Squares-/pure/transform-upright" transform="translate(15.000000, 61.000000)">
                    <g id="Squares" transform="translate(4.518367, -13.555102)">
                        <path d="M430.358676,18.4388547 C287.030039,117.870047 143.693871,217.305004 0.365234694,316.735442 C99.7964265,460.064832 199.231384,603.400247 298.662576,746.728883 C441.991965,647.298444 585.326627,547.862734 728.656016,448.432296 C629.224824,305.102906 529.789867,161.767491 430.358676,18.4388547 Z" id="Stroke-1" stroke="url(#linearGradient-1)" stroke-width="7.883"></path>
                        <path d="M434.961333,29.3693878 C298.762321,123.854651 162.556154,218.343493 26.3571429,312.828041 C120.842309,449.027909 215.331053,585.233501 309.816218,721.432653 C446.015945,626.948105 582.220681,532.458548 718.420408,437.974 C623.935242,301.774132 529.446498,165.56854 434.961333,29.3693878 Z" id="Stroke-2" stroke="url(#linearGradient-2)" stroke-width="7.48885" transform="translate(372.388776, 375.401020) rotate(-3.000000) translate(-372.388776, -375.401020) "></path>
                        <path d="M439.359913,39.1591837 C309.978262,128.915043 180.589814,218.674302 51.2081633,308.429482 C140.96393,437.811946 230.723096,567.199848 320.478863,696.581633 C449.861193,606.826453 579.248282,517.066514 708.630612,427.311334 C618.874845,297.92887 529.11568,168.540968 439.359913,39.1591837 Z" id="Stroke-3" stroke="url(#linearGradient-2)" stroke-width="7.1144075" transform="translate(379.919388, 367.870408) rotate(-6.000000) translate(-379.919388, -367.870408) "></path>
                        <path d="M443.894668,48.1959184 C321.033971,133.428001 198.166819,218.66331 75.3061224,303.894747 C160.538116,426.756216 245.773338,549.62285 331.005332,672.483673 C453.866674,587.252237 576.732535,502.016282 699.593878,416.784845 C614.361884,293.923376 529.126662,171.056742 443.894668,48.1959184 Z" id="Stroke-4" stroke="url(#linearGradient-2)" stroke-width="6.75868712" transform="translate(387.450000, 360.339796) rotate(-9.000000) translate(-387.450000, -360.339796) "></path>
                        <path d="M449.010217,56.4795918 C332.225863,137.496336 215.435374,218.516148 98.6510204,299.532278 C179.667681,416.317366 260.687409,533.107362 341.704069,649.891837 C458.489036,568.875706 575.278298,487.855281 692.063265,406.839151 C611.046605,290.054063 530.026877,173.264066 449.010217,56.4795918 Z" id="Stroke-5" stroke="url(#linearGradient-2)" stroke-width="6.42075277" transform="translate(395.357143, 353.185714) rotate(-12.000000) translate(-395.357143, -353.185714) "></path>
                        <path d="M454.261941,64.0102041 C343.257524,141.017236 232.247274,218.027184 121.242857,295.033633 C198.24981,406.038748 275.259678,517.048529 352.26663,628.053061 C463.271631,551.046612 574.280714,474.036081 685.285714,397.029632 C608.278762,286.024517 531.268893,175.014736 454.261941,64.0102041 Z" id="Stroke-6" stroke="url(#linearGradient-2)" stroke-width="6.09971513" transform="translate(403.264286, 346.031633) rotate(-15.000000) translate(-403.264286, -346.031633) "></path>
                        <path d="M459.649841,70.7877551 C354.128953,143.990701 248.602521,217.19642 143.081633,290.398812 C216.284503,395.920363 289.490146,501.44635 362.693017,606.967347 C468.214459,533.764955 573.739782,460.558682 679.261224,387.35629 C606.058354,281.834739 532.852711,176.308752 459.649841,70.7877551 Z" id="Stroke-7" stroke="url(#linearGradient-2)" stroke-width="5.79472937" transform="translate(411.171429, 338.877551) rotate(-18.000000) translate(-411.171429, -338.877551) "></path>
                        <path d="M464.729297,76.8122449 C364.543735,146.313919 264.352909,215.818224 164.167347,285.319372 C233.668949,385.505564 303.173183,485.695967 372.674784,585.881633 C472.860873,516.380485 573.050646,446.875653 673.236735,377.374506 C603.735133,277.188314 534.230899,176.997911 464.729297,76.8122449 Z" id="Stroke-8" stroke="url(#linearGradient-2)" stroke-width="5.50499291" transform="translate(418.702041, 331.346939) rotate(-21.000000) translate(-418.702041, -331.346939) "></path>
                    </g>
                </g>
            </g>
        </g>
    </g>
</svg>