
<svg width="99px" height="125px" viewBox="0 0 99 125" version="1.1" xmlns="http://www.w3.org/2000/svg" xmlns:xlink="http://www.w3.org/1999/xlink">
    <g id="Page-1" stroke="none" stroke-width="1" fill="none" fill-rule="evenodd">
        <g id="Desktop-HD" transform="translate(-66.000000, -15.000000)" fill="#FFFFFF">
            <g id="Hero">
                <g id="Wordmark-/mono/white" transform="translate(56.000000, 12.000000)">
                    <g id="Bug-NoR" transform="translate(14.337422, 3.058824)">
                        <path d="M50.9036996,48.0580593 L74.4882338,52.7454043 C74.8715617,52.8225727 75.2638378,52.6644262 75.4907225,52.34125 C75.7176072,52.0180738 75.7369923,51.5898471 75.5402625,51.2468871 L46.521284,0.63873645 C46.2956271,0.243375931 45.8797536,0 45.4298301,0 C44.9799066,0 44.564033,0.243375931 44.3383762,0.63873645 L38.3042547,11.2969664 C37.4722205,12.7707389 37.3058659,14.537234 37.847753,16.1444904 L47.7019632,45.2254192 C48.1957819,46.6818273 49.4156324,47.7610534 50.9036996,48.0580593 Z" id="Path" fill-rule="nonzero"></path>
                        <path d="M25.5594701,78.7647059 L88.7115298,78.7252887 C89.2328276,78.7262517 89.714798,78.4514751 89.9749272,78.0050118 C90.2350565,77.5585485 90.2335752,77.0086553 89.9710444,76.5635671 L83.1633682,65.0122562 C82.3137592,63.5701519 80.8762844,62.560062 79.2189885,62.2406054 L46.4716101,55.9027364 C44.9687862,55.6119805 43.4229551,56.1336005 42.413874,57.271965 L24.8163565,77.1154077 C24.5573318,77.4069636 24.4936938,77.820843 24.6533907,78.1752812 C24.8130876,78.5297193 25.1669106,78.759889 25.5594701,78.7647059 L25.5594701,78.7647059 Z" id="Path" fill-rule="nonzero"></path>
                        <path d="M38.8251327,45.8136744 L32.036807,26.1262536 C31.8680605,25.636788 31.4286915,25.2908773 30.9128477,25.2413718 C30.3970039,25.1918663 29.8997471,25.447889 29.6408042,25.8963092 L0.332145104,76.7850937 C0.0968462342,77.193942 0.0975551263,77.6970844 0.334005138,78.1052694 C0.57045515,78.5134544 1.00678662,78.7647059 1.4788783,78.7647059 L10.1421547,78.7647059 C11.8258847,78.7647059 13.4275518,78.0381302 14.5365702,76.7725513 L37.9964715,50.0362896 C39.0113507,48.8793499 39.3276134,47.2677676 38.8251327,45.8136744 Z" id="Path" fill-rule="nonzero"></path>
                    </g>
                    <g id="Wordmark" transform="translate(10.679487, 98.647059)">
                        <polygon id="Path" fill-rule="nonzero" points="18.3076923 3.87276409 11.3582076 3.87276409 11.3582076 23.7058824 6.91605359 23.7058824 6.91605359 3.87276409 0 3.87276409 0 0 18.3076923 0"></polygon>
                        <path d="M32.0384615,14.9266161 C32.0384615,19.787249 27.9381058,23.7058824 22.8846154,23.7058824 C17.831125,23.7058824 13.7307692,19.787249 13.7307692,14.9266161 C13.7307692,10.0659831 17.831125,6.11764706 22.8846154,6.11764706 C27.9381058,6.11764706 32.0384615,10.0362804 32.0384615,14.9266161 Z M27.8150534,14.9266161 C27.801327,13.6121762 27.2735208,12.3574258 26.3483126,11.439743 C25.4231045,10.5220601 24.176694,10.0170245 22.8846154,10.0362804 C20.1732916,10.0362804 17.9541774,12.2300362 17.9541774,14.9266161 C17.9541774,17.6231959 20.1732916,19.787249 22.8846154,19.787249 C25.6272237,19.787249 27.8150534,17.5913716 27.8150534,14.9266161 Z" id="Shape" fill-rule="nonzero"></path>
                        <path d="M51.8717949,14.9683964 C51.8717949,20.229391 48.067258,23.7871705 43.4449429,23.7871705 C41.745842,23.802341 40.0723492,23.361453 38.590163,22.5081605 L38.590163,29.0588235 L34.3269231,29.0588235 L34.3269231,6.43100451 L38.590163,6.43100451 L38.590163,7.43929075 C40.0676036,6.57675784 41.7371894,6.12145862 43.4366406,6.11764706 C48.067258,6.11764706 51.8717949,9.61360779 51.8717949,14.9683964 Z M47.6687468,14.9683964 C47.6687468,12.1652328 45.5225978,10.0548663 42.6707518,10.0548663 C41.1830464,10.0370941 39.7373218,10.5612312 38.590163,11.5342545 L38.590163,18.4025383 C39.6030456,19.3148988 41.0434977,19.852083 42.6707518,19.852083 C45.5205222,19.852083 47.6687468,17.8674858 47.6687468,14.9683964 Z" id="Shape" fill-rule="nonzero"></path>
                        <path d="M71.7051282,14.9683964 C71.7051282,20.229391 67.902217,23.7893022 63.2689759,23.7893022 C61.5728932,23.8028518 59.9027787,23.3612287 58.4240007,22.5081605 L58.4240007,29.0588235 L54.1602564,29.0588235 L54.1602564,6.43100451 L58.4240007,6.43100451 L58.4240007,7.43929075 C59.9008601,6.57675182 61.5699779,6.12143907 63.2689759,6.11764706 C67.902217,6.11764706 71.7051282,9.61360779 71.7051282,14.9683964 Z M67.5036587,14.9683964 C67.5036587,12.1652328 65.3551799,10.0548663 62.5029966,10.0548663 C61.0157367,10.0370448 59.5704786,10.5612174 58.4240007,11.5342545 L58.4240007,18.4025383 C59.4349274,19.3148988 60.8776257,19.852083 62.5029966,19.852083 C65.3551799,19.852083 67.5036587,17.8674858 67.5036587,14.9683964 Z" id="Shape" fill-rule="nonzero"></path>
                        <polygon id="Path" fill-rule="nonzero" points="73.9935897 0 78.5705128 0 78.5705128 23.7058824 73.9935897 23.7058824"></polygon>
                        <path d="M85.1634615,16.1804939 C85.6286982,18.4060739 87.3932446,19.9739516 89.9646203,19.9739516 C91.7291667,19.9739516 93.370069,19.1592493 94.2984467,17.8735472 L97.0563363,20.1946002 C95.507643,22.3162208 92.7518491,23.7058824 89.4679487,23.7058824 C84.3901627,23.7058824 80.8589744,19.787249 80.8589744,14.9266161 C80.8589744,10.0659831 84.3901627,6.11764706 89.4679487,6.11764706 C94.6400394,6.11764706 97.6410256,9.9111048 97.6410256,15.2087916 C97.6410256,15.5546158 97.6116864,15.8983183 97.6116864,16.1804939 L85.1634615,16.1804939 Z M85.1948964,13.3905627 L93.5314349,13.3905627 C93.376356,11.4471582 92.3536736,9.59710495 89.4742357,9.59710495 C87.2067308,9.59710495 85.5972633,11.2901582 85.1948964,13.3905627 L85.1948964,13.3905627 Z" id="Shape" fill-rule="nonzero"></path>
                    </g>
                </g>
            </g>
        </g>
    </g>
</svg>